<?xml version="1.0" encoding="utf-8"?>
<!-- Generator: Adobe Illustrator 27.0.0, SVG Export Plug-In . SVG Version: 6.00 Build 0)  -->
<svg version="1.1" id="Layer_1" xmlns="http://www.w3.org/2000/svg" xmlns:xlink="http://www.w3.org/1999/xlink" x="0px" y="0px"
	 viewBox="0 0 512 512" style="enable-background:new 0 0 512 512;" xml:space="preserve">
<style type="text/css">
	.st0{fill:url(#lozenge_00000096762602066499596340000008664749818129735609_);}
	.st1{fill:#FFFFFF;}
</style>
<g id="XMLID_1_">
	
		<linearGradient id="lozenge_00000125591638786980704640000003702131055414319492_" gradientUnits="userSpaceOnUse" x1="360.1481" y1="364.3347" x2="360.1481" y2="150.6652" gradientTransform="matrix(1 0 0 -1 0 514)">
		<stop  offset="0" style="stop-color:#E32E28"/>
		<stop  offset="1" style="stop-color:#BE2126"/>
	</linearGradient>
	<path id="lozenge_2_" style="fill:url(#lozenge_00000125591638786980704640000003702131055414319492_);" d="M509.79,195.76
		c0,0-2.99-20.91-12.09-30.16c-11.67-12.09-24.61-12.09-30.59-12.8c-42.68-3.13-106.83-3.13-106.83-3.13h-0.14
		c0,0-64.02,0-106.83,3.13c-5.97,0.71-18.92,0.71-30.59,12.8c-9.1,9.25-12.09,30.16-12.09,30.16s-2.99,24.61-2.99,49.22v23.05
		c0,24.61,2.99,49.22,2.99,49.22s2.99,20.91,12.09,30.16c11.67,12.09,26.89,11.67,33.71,12.95c24.47,2.28,103.71,2.99,103.71,2.99
		s64.16-0.14,106.83-3.13c5.97-0.71,18.92-0.71,30.59-12.8c9.1-9.25,12.09-30.16,12.09-30.16s2.99-24.61,2.99-49.22v-23.05
		C512.92,220.37,509.79,195.76,509.79,195.76z"/>
	<path id="u_2_" d="M191.85,322.65h-19.49v-11.24c-7.4,8.39-13.66,12.66-20.34,12.66c-5.97,0-10.1-2.85-12.23-7.97
		c-1.28-3.13-2.13-7.97-2.13-15.08v-81.8h19.49v76.68c0,4.27,0,6.12,0,7.11c0.43,2.85,1.71,3.98,4.13,3.98
		c3.7,0,7.11-3.27,11.24-8.96v-78.67h19.49v103.28H191.85z"/>
	<path id="o_2_" d="M123.42,253.09c0-11.1-2.28-19.35-6.12-24.47c-5.12-7.11-13.23-9.96-21.48-9.96c-9.25,0-16.36,2.85-21.48,9.96
		c-3.98,5.26-6.12,13.66-6.12,24.61v36.7c0,10.95,1.85,18.49,5.83,23.76c5.12,6.97,13.51,10.81,21.77,10.81
		c8.11,0,16.64-3.7,21.91-10.81c3.98-5.12,5.69-12.8,5.69-23.76L123.42,253.09L123.42,253.09z M103.93,291.92
		c1,10.24-2.13,15.36-8.11,15.36c-5.97,0-9.25-5.12-8.11-15.36v-40.83c-1-10.24,2.13-15.08,8.11-15.08c5.97,0,9.25,4.84,8.25,15.08
		L103.93,291.92z"/>
	<path id="y_2_" d="M46.75,266.46v56.19H26.26v-56.19c0,0-21.2-68.99-25.61-81.8h21.48l14.51,53.77l14.23-53.77h21.48L46.75,266.46z
		"/>
	<path id="e_1_" class="st1" d="M487.32,274.57v-20.91c0-10.95-2.13-18.92-5.97-24.04c-5.12-6.97-12.52-10.67-21.91-10.67
		s-16.79,3.7-22.19,10.67c-3.98,5.12-6.26,13.66-6.26,24.47v35.85c0,10.81,2.56,18.49,6.4,23.61c5.41,6.97,12.66,10.53,22.33,10.53
		c9.67,0,17.21-3.7,22.33-11.1c2.28-3.27,3.7-6.97,4.27-11.1c0.14-1.85,0.71-6.12,0.71-12.09v-2.85h-19.49c0,7.4,0,11.81-0.14,12.8
		c-1,4.98-3.7,7.4-8.25,7.4c-6.4,0-9.1-4.69-8.96-14.23v-18.35L487.32,274.57L487.32,274.57z M450.47,247.96
		c0-9.53,2.56-12.09,8.82-12.09c6.12,0,8.54,2.85,8.54,12.23v11.1h-17.36V247.96z"/>
	<path id="b_1_" class="st1" d="M401.54,218.8c-6.83,0-13.51,4.13-19.49,11.52v-44.67H363.7v136.99h18.35v-10.24
		c6.12,7.68,12.95,11.67,19.49,11.67c7.4,0,12.8-3.98,15.22-11.52c1.28-4.27,1.99-10.95,1.99-20.48v-40.83
		c0-9.67-1.28-16.36-2.42-20.34C413.91,223.07,408.93,218.8,401.54,218.8z M399.4,293.06c0,10.24-2.42,14.08-7.68,14.08
		c-2.99,0-6.54-1.56-9.67-4.69v-62.02c3.13-2.99,6.54-4.69,9.67-4.69c5.41,0,7.68,2.99,7.68,13.23V293.06z"/>
	<path id="u_1_" class="st1" d="M348.33,322.65h-19.49v-11.24c-7.4,8.39-13.66,12.66-20.34,12.66c-5.97,0-10.1-2.85-12.23-7.97
		c-1.28-3.13-2.13-7.97-2.13-15.08v-80.8h19.49v75.68c0,4.27,0,6.12,0,7.11c0.43,2.85,1.71,3.98,4.13,3.98
		c3.7,0,7.11-3.27,11.24-8.96v-77.67h19.49v102.28H348.33z"/>
	<polygon id="T" class="st1" points="274.64,322.65 254.3,322.65 254.3,205.15 232.82,205.15 232.82,185.66 297.26,185.66 
		297.26,205.15 274.64,205.15 	"/>
</g>
</svg>
